<svg xmlns="http://www.w3.org/2000/svg" xmlns:xlink="http://www.w3.org/1999/xlink" version="1.1" width="438.549" height="438.549" style="enable-background:new 0 0 438.549 438.549;" xml:space="preserve"><rect id="backgroundrect" width="100%" height="100%" x="0" y="0" fill="none" stroke="none"/>
















<g class="currentLayer" style=""><title>Layer 1</title><g id="svg_1" class="" fill="#053e2c" fill-opacity="1">
	<path d="M409.9450081295967,114.573 c-19.608,-33.596000000000004 -46.205,-60.194 -79.798,-79.8 C296.5490081295967,15.166 259.8700081295967,5.365 220.0840081295967,5.365 c-39.781,0 -76.472,9.804 -110.063,29.408 c-33.596000000000004,19.605 -60.192,46.204 -79.8,79.8 C10.616008129596711,148.168 0.8130081295967102,184.854 0.8130081295967102,224.63 c0,47.78 13.94,90.745 41.827,128.906 c27.884,38.164 63.906,64.572 108.063,79.227 c5.14,0.9540000000000001 8.945,0.28300000000000003 11.419,-1.996 c2.475,-2.282 3.7110000000000003,-5.14 3.7110000000000003,-8.562 c0,-0.5710000000000001 -0.04900000000000001,-5.708 -0.14400000000000002,-15.417 c-0.09800000000000003,-9.709 -0.14400000000000002,-18.179 -0.14400000000000002,-25.406 l-6.567,1.1360000000000001 c-4.187,0.7670000000000001 -9.469,1.092 -15.846,1 c-6.374,-0.08900000000000002 -12.991,-0.7570000000000001 -19.842,-1.999 c-6.854,-1.231 -13.229,-4.086 -19.13,-8.559 c-5.898,-4.473 -10.085,-10.328 -12.56,-17.556 l-2.855,-6.57 c-1.903,-4.374 -4.899,-9.233 -8.992,-14.559 c-4.093,-5.331 -8.232,-8.945 -12.419,-10.848 l-1.999,-1.431 c-1.332,-0.9510000000000001 -2.568,-2.098 -3.7110000000000003,-3.4290000000000003 c-1.142,-1.331 -1.9969999999999999,-2.6630000000000003 -2.568,-3.997 c-0.5720000000000001,-1.335 -0.09800000000000003,-2.43 1.427,-3.289 c1.525,-0.8590000000000001 4.281,-1.276 8.28,-1.276 l5.708,0.8530000000000001 c3.807,0.7630000000000001 8.516,3.042 14.133,6.851 c5.614,3.806 10.229,8.754 13.846,14.842 c4.38,7.806 9.657,13.754 15.846,17.847 c6.184,4.093 12.419,6.136 18.699,6.136 c6.28,0 11.704,-0.47600000000000003 16.274,-1.423 c4.565,-0.9520000000000001 8.848,-2.383 12.847,-4.285 c1.713,-12.758000000000001 6.377,-22.559 13.988,-29.41 c-10.848,-1.1400000000000001 -20.601,-2.857 -29.264,-5.14 c-8.658,-2.286 -17.605,-5.996 -26.835,-11.14 c-9.235,-5.1370000000000005 -16.896,-11.516 -22.985,-19.126 c-6.09,-7.614 -11.088,-17.61 -14.987,-29.979 c-3.901,-12.374 -5.852,-26.648 -5.852,-42.826 c0,-23.035 7.52,-42.637 22.557,-58.817 c-7.044,-17.318 -6.3790000000000004,-36.732 1.9969999999999999,-58.24 c5.52,-1.715 13.706,-0.42800000000000005 24.554,3.853 c10.85,4.283 18.794,7.952 23.84,10.994 c5.046,3.041 9.089,5.618 12.135,7.708 c17.705,-4.947 35.976,-7.421 54.818,-7.421 s37.117,2.474 54.823,7.421 l10.849,-6.849 c7.4190000000000005,-4.57 16.18,-8.758000000000001 26.262,-12.565 c10.088,-3.805 17.802,-4.853 23.134,-3.138 c8.562,21.509 9.325,40.922 2.279,58.24 c15.036,16.18 22.559,35.787 22.559,58.817 c0,16.178 -1.9580000000000002,30.497 -5.853,42.966 c-3.9,12.471 -8.941,22.457 -15.125,29.979 c-6.191,7.521 -13.901,13.85 -23.131,18.986 c-9.232,5.14 -18.182,8.85 -26.84,11.136 c-8.662,2.286 -18.415,4.004 -29.263,5.146 c9.894,8.562 14.842,22.077 14.842,40.539 v60.237 c0,3.422 1.19,6.279 3.572,8.562 c2.379,2.279 6.136,2.95 11.276,1.995 c44.163,-14.653 80.185,-41.062 108.068,-79.226 c27.88,-38.161 41.825,-81.126 41.825,-128.906 C439.3490081295967,184.851 429.5410081295967,148.168 409.9450081295967,114.573 z" id="svg_2" fill="#053e2c" fill-opacity="1"/>
</g><g id="svg_3">
</g><g id="svg_4">
</g><g id="svg_5">
</g><g id="svg_6">
</g><g id="svg_7">
</g><g id="svg_8">
</g><g id="svg_9">
</g><g id="svg_10">
</g><g id="svg_11">
</g><g id="svg_12">
</g><g id="svg_13">
</g><g id="svg_14">
</g><g id="svg_15">
</g><g id="svg_16">
</g><g id="svg_17">
</g></g></svg>